<?xml version="1.0" encoding="UTF-8" standalone="no"?>
<svg width="73px" height="13px" viewBox="0 0 73 13" version="1.1" xmlns="http://www.w3.org/2000/svg" xmlns:xlink="http://www.w3.org/1999/xlink">
    <!-- Generator: Sketch 45.1 (43504) - http://www.bohemiancoding.com/sketch -->
    <title>Group</title>
    <desc>Created with Sketch.</desc>
    <defs></defs>
    <g id="Page-1" stroke="none" stroke-width="1" fill="none" fill-rule="evenodd">
        <g id="xaurum" transform="translate(0.000000, -67.000000)" fill-rule="nonzero" fill="#876C3C">
            <g id="Group" transform="translate(0.000000, 67.000000)">
                <polygon id="Shape" points="10.6 0.8 9.6 0.8 5.8 5.7 2 0.8 1 0.8 5.3 6.3 0.8 12 1.8 12 5.8 6.9 9.8 12 10.8 12 6.3 6.3"></polygon>
                <path d="M17.5,0.7 L12.3,12 L13.2,12 L14.6,8.9 L21.2,8.9 L22.6,12 L23.5,12 L18.3,0.7 L17.5,0.7 Z M14.9,8.1 L17.9,1.6 L20.9,8.1 L14.9,8.1 Z" id="Shape"></path>
                <path d="M34.1,7.4 C34.1,8.1 34,8.7 33.8,9.2 C33.6,9.7 33.4,10.1 33,10.5 C32.7,10.8 32.3,11.1 31.8,11.3 C31.3,11.5 30.8,11.6 30.3,11.6 C29.1,11.6 28.2,11.2 27.5,10.5 C26.8,9.8 26.5,8.7 26.5,7.4 L26.5,0.9 L25.7,0.9 L25.7,7.5 C25.7,8.3 25.8,9 26,9.6 C26.2,10.2 26.5,10.7 27,11.1 C27.4,11.5 27.9,11.8 28.5,12 C29.1,12.2 29.7,12.3 30.4,12.3 C31.1,12.3 31.7,12.2 32.3,12 C32.9,11.8 33.3,11.5 33.8,11.1 C34.2,10.7 34.5,10.2 34.7,9.6 C34.9,9 35,8.3 35,7.5 L35,1 L34.2,1 L34.2,7.4 L34.1,7.4 Z" id="Shape"></path>
                <path d="M44.9,6.9 C45.3,6.7 45.6,6.5 45.9,6.3 C46.2,6 46.4,5.7 46.6,5.3 C46.8,4.9 46.8,4.5 46.8,4 L46.8,4 C46.8,3.6 46.7,3.2 46.6,2.9 C46.5,2.5 46.2,2.2 46,2 C45.7,1.7 45.2,1.4 44.7,1.2 C44.2,1 43.5,0.9 42.9,0.9 L38.2,0.9 L38.2,12 L39,12 L39,7.3 L42.6,7.3 L42.6,7.3 L46.2,12 L47.3,12 L43.6,7.2 C44,7.2 44.5,7.1 44.9,6.9 Z M39,6.6 L39,1.5 L42.8,1.5 C43.8,1.5 44.6,1.7 45.2,2.2 C45.8,2.6 46,3.2 46,4 L46,4 C46,4.4 45.9,4.8 45.8,5.1 C45.6,5.4 45.4,5.7 45.1,5.9 C44.8,6.1 44.5,6.3 44.1,6.4 C43.7,6.5 43.3,6.6 42.8,6.6 L39,6.6 Z" id="Shape"></path>
                <path d="M57.9,7.4 C57.9,8.1 57.8,8.7 57.6,9.2 C57.4,9.7 57.2,10.1 56.8,10.5 C56.5,10.8 56.1,11.1 55.6,11.3 C55.1,11.5 54.6,11.6 54.1,11.6 C52.9,11.6 52,11.2 51.3,10.5 C50.6,9.8 50.3,8.7 50.3,7.4 L50.3,0.9 L49.5,0.9 L49.5,7.5 C49.5,8.3 49.6,9 49.8,9.6 C50,10.2 50.3,10.7 50.8,11.1 C51.2,11.5 51.7,11.8 52.3,12 C52.9,12.2 53.5,12.3 54.2,12.3 C54.9,12.3 55.5,12.2 56.1,12 C56.7,11.8 57.1,11.5 57.6,11.1 C58,10.7 58.3,10.2 58.5,9.6 C58.7,9 58.8,8.3 58.8,7.5 L58.8,1 L58,1 L58,7.4 L57.9,7.4 Z" id="Shape"></path>
                <polygon id="Shape" points="67.2 7.4 62.7 0.8 61.9 0.8 61.9 12 62.7 12 62.7 2.3 67.2 8.7 67.2 8.7 71.7 2.3 71.7 12 72.5 12 72.5 0.8 71.7 0.8"></polygon>
            </g>
        </g>
    </g>
</svg>