<?xml version="1.0" encoding="UTF-8" standalone="no"?>
<svg width="74px" height="80px" viewBox="0 0 74 80" version="1.1" xmlns="http://www.w3.org/2000/svg" xmlns:xlink="http://www.w3.org/1999/xlink">
    <!-- Generator: Sketch 45.1 (43504) - http://www.bohemiancoding.com/sketch -->
    <title>xaurum</title>
    <desc>Created with Sketch.</desc>
    <defs></defs>
    <g id="Page-1" stroke="none" stroke-width="1" fill="none" fill-rule="evenodd">
        <g id="xaurum" fill-rule="nonzero" fill="#876C3C">
            <polygon id="Shape" points="10.6 67.8 9.6 67.8 5.8 72.7 2 67.8 1 67.8 5.3 73.3 0.8 79 1.8 79 5.8 73.9 9.8 79 10.8 79 6.3 73.3"></polygon>
            <path d="M17.5,67.7 L12.3,79 L13.2,79 L14.6,75.9 L21.2,75.9 L22.6,79 L23.5,79 L18.3,67.7 L17.5,67.7 Z M14.9,75.1 L17.9,68.6 L20.9,75.1 L14.9,75.1 Z" id="Shape"></path>
            <path d="M34.1,74.4 C34.1,75.1 34,75.7 33.8,76.2 C33.6,76.7 33.4,77.1 33,77.5 C32.7,77.8 32.3,78.1 31.8,78.3 C31.3,78.5 30.8,78.6 30.3,78.6 C29.1,78.6 28.2,78.2 27.5,77.5 C26.8,76.8 26.5,75.7 26.5,74.4 L26.5,67.9 L25.7,67.9 L25.7,74.5 C25.7,75.3 25.8,76 26,76.6 C26.2,77.2 26.5,77.7 27,78.1 C27.4,78.5 27.9,78.8 28.5,79 C29.1,79.2 29.7,79.3 30.4,79.3 C31.1,79.3 31.7,79.2 32.3,79 C32.9,78.8 33.3,78.5 33.8,78.1 C34.2,77.7 34.5,77.2 34.7,76.6 C34.9,76 35,75.3 35,74.5 L35,68 L34.2,68 L34.2,74.4 L34.1,74.4 Z" id="Shape"></path>
            <path d="M44.9,73.9 C45.3,73.7 45.6,73.5 45.9,73.3 C46.2,73 46.4,72.7 46.6,72.3 C46.8,71.9 46.8,71.5 46.8,71 L46.8,71 C46.8,70.6 46.7,70.2 46.6,69.9 C46.5,69.5 46.2,69.2 46,69 C45.7,68.7 45.2,68.4 44.7,68.2 C44.2,68 43.5,67.9 42.9,67.9 L38.2,67.9 L38.2,79 L39,79 L39,74.3 L42.6,74.3 L42.6,74.3 L46.2,79 L47.3,79 L43.6,74.2 C44,74.2 44.5,74.1 44.9,73.9 Z M39,73.6 L39,68.5 L42.8,68.5 C43.8,68.5 44.6,68.7 45.2,69.2 C45.8,69.6 46,70.2 46,71 L46,71 C46,71.4 45.9,71.8 45.8,72.1 C45.6,72.4 45.4,72.7 45.1,72.9 C44.8,73.1 44.5,73.3 44.1,73.4 C43.7,73.5 43.3,73.6 42.8,73.6 L39,73.6 Z" id="Shape"></path>
            <path d="M57.9,74.4 C57.9,75.1 57.8,75.7 57.6,76.2 C57.4,76.7 57.2,77.1 56.8,77.5 C56.5,77.8 56.1,78.1 55.6,78.3 C55.1,78.5 54.6,78.6 54.1,78.6 C52.9,78.6 52,78.2 51.3,77.5 C50.6,76.8 50.3,75.7 50.3,74.4 L50.3,67.9 L49.5,67.9 L49.5,74.5 C49.5,75.3 49.6,76 49.8,76.6 C50,77.2 50.3,77.7 50.8,78.1 C51.2,78.5 51.7,78.8 52.3,79 C52.9,79.2 53.5,79.3 54.2,79.3 C54.9,79.3 55.5,79.2 56.1,79 C56.7,78.8 57.1,78.5 57.6,78.1 C58,77.7 58.3,77.2 58.5,76.6 C58.7,76 58.8,75.3 58.8,74.5 L58.8,68 L58,68 L58,74.4 L57.9,74.4 Z" id="Shape"></path>
            <polygon id="Shape" points="67.2 74.4 62.7 67.8 61.9 67.8 61.9 79 62.7 79 62.7 69.3 67.2 75.7 67.2 75.7 71.7 69.3 71.7 79 72.5 79 72.5 67.8 71.7 67.8"></polygon>
            <path d="M55.4,27.3 L55.4,23.4 L62.6,23.4 L62.6,19.1 L67.7,19.1 L67.7,2.9 L73.1,2.9 L73.1,0.8 L51.3,0.8 L51.3,2.9 L60.6,2.9 L60.6,16 L55.5,16 L55.5,19.9 L48.3,19.9 L48.3,21.9 L40.9,21.9 C41,21.8 41,21.7 41.1,21.5 C41.7,20.3 42.6,19.8 43.2,19.7 C42.9,19.9 42.8,20.2 42.8,20.5 C42.8,21.1 43.3,21.6 44,21.6 C44.4,21.6 44.8,21.4 45,21.1 C45,21.1 45,21.1 45,21.1 C45.3,20.7 45.4,20.3 45.2,19.9 C44.9,19.3 44.1,18.9 43.3,18.9 C42.5,18.9 41.2,19.5 40.3,21.2 C40.2,21.5 40,21.7 39.9,22 L37.1,14.8 L34.3,21.9 C34.2,21.7 34.1,21.5 34,21.3 C33.1,19.6 31.8,19 31,19 C30.2,19 29.4,19.4 29.1,20 C28.9,20.4 29,20.8 29.3,21.2 C29.3,21.2 29.3,21.2 29.3,21.2 C29.5,21.5 29.9,21.7 30.3,21.7 C31,21.7 31.5,21.2 31.5,20.6 C31.5,20.3 31.3,20 31.1,19.8 C31.7,19.9 32.6,20.4 33.2,21.6 C33.3,21.7 33.3,21.8 33.4,22 L25.9,22 L25.9,20 L18.7,20 L18.7,16.1 L13.6,16.1 L13.6,2.9 L22.9,2.9 L22.9,0.8 L1,0.8 L1,2.9 L6.4,2.9 L6.4,19.2 L11.5,19.2 L11.5,23.5 L18.7,23.5 L18.7,27.4 L25.6,27.4 L25.6,29.2 L20.4,31.2 L25.6,33.2 L25.6,34.7 L18.7,34.7 L18.7,38.6 L11.5,38.6 L11.5,42.9 L6.4,42.9 L6.4,59.2 L1,59.2 L1,61.3 L22.9,61.3 L22.9,59.2 L13.6,59.2 L13.6,45.9 L18.7,45.9 L18.7,42 L25.9,42 L25.9,40.1 L33.4,40.1 C33.3,40.2 33.3,40.4 33.2,40.5 C32.6,41.7 31.7,42.2 31.1,42.3 C31.4,42.1 31.5,41.8 31.5,41.5 C31.5,40.9 31,40.4 30.3,40.4 C29.9,40.4 29.5,40.6 29.3,40.9 C29.3,40.9 29.3,40.9 29.3,40.9 C29,41.3 28.9,41.7 29.1,42.1 C29.4,42.7 30.2,43.1 31,43.1 C31.8,43.1 33.1,42.5 34,40.8 C34.1,40.7 34.1,40.5 34.2,40.4 L37.1,47.8 L40,40.3 C40.1,40.5 40.2,40.7 40.3,40.8 C41.2,42.5 42.5,43.1 43.3,43.1 C44.1,43.1 44.9,42.7 45.2,42.1 C45.4,41.7 45.3,41.3 45,40.9 C45,40.9 45,40.9 45,40.9 C44.8,40.6 44.4,40.4 44,40.4 C43.3,40.4 42.8,40.9 42.8,41.5 C42.8,41.8 43,42.1 43.2,42.3 C42.6,42.2 41.7,41.7 41.1,40.5 C41,40.4 41,40.2 40.9,40.1 L48.3,40.1 L48.3,42 L55.5,42 L55.5,45.9 L60.6,45.9 L60.6,59 L51.3,59 L51.3,61.1 L73.2,61.1 L73.2,59 L67.8,59 L67.8,42.8 L62.7,42.8 L62.7,38.5 L55.5,38.5 L55.5,34.6 L48.5,34.6 L48.5,33.1 L53.8,31 L48.5,28.9 L48.5,27.2 L55.4,27.2 L55.4,27.3 Z M47.2,31.2 C47,31.2 46.9,31.3 46.7,31.4 C46.7,31.4 46.6,31.4 46.6,31.5 C46.6,31.5 46.5,31.6 46.4,31.6 C46.3,31.6 46.3,31.7 46.3,31.7 C46.3,31.7 46.2,31.7 46.2,31.7 C46.2,31.7 46.1,31.7 46.1,31.8 C46,31.8 46,31.9 46,31.9 C46,31.9 46,31.9 46,31.9 C46,31.9 46,31.9 46,31.9 L46,31.9 C46,31.9 46,31.9 45.9,31.9 C45.9,31.9 45.8,31.8 45.8,31.8 C45.8,31.8 45.7,31.7 45.7,31.7 C45.7,31.7 45.6,31.7 45.6,31.6 C45.5,31.5 45.3,31.4 45.2,31.3 C45,31.2 44.9,31.2 44.7,31.2 L42.8,31.2 C42.9,31.2 43,31.3 43.1,31.3 C43.2,31.3 43.3,31.3 43.4,31.4 C43.8,31.6 44.2,31.8 44.6,32 C45,32.2 45.3,32.5 45.6,32.9 L45.5,33 L44.4,33.9 L44.3,33.9 C44.2,33.6 44.1,33.3 43.9,33 C43.7,32.7 43.5,32.5 43.2,32.3 C42.9,32.1 42.7,31.9 42.4,31.7 C42.3,31.6 42.1,31.5 42,31.5 L40.1,33 L41.1,35.2 L38.9,34.2 L37,36.1 L35.1,34.2 L32.9,35.2 L33.9,33 L32.5,31.6 C32.3,31.7 32,31.8 31.8,32 C31.5,32.2 31.3,32.4 31.1,32.6 C30.9,32.8 30.7,33 30.5,33.3 C30.3,33.6 30.2,33.8 30.1,34.1 L28.9,33.1 L28.8,33 C29.1,32.6 29.4,32.3 29.8,32.1 C30.2,31.9 30.6,31.7 31,31.5 C31.1,31.5 31.2,31.5 31.3,31.4 C31.4,31.4 31.5,31.3 31.6,31.3 L29.8,31.3 C29.7,31.3 29.6,31.3 29.4,31.4 C29.3,31.4 29.1,31.5 29,31.6 C28.9,31.7 28.8,31.7 28.6,31.8 C28.5,31.9 28.4,32 28.3,32 L28.3,32 C28.3,32 28.2,32 28.1,31.9 C28,31.8 28,31.8 27.9,31.8 C27.7,31.7 27.5,31.6 27.4,31.5 C27.2,31.4 27,31.4 26.8,31.3 C26.7,31.3 26.7,31.3 26.6,31.3 C26.5,31.3 26.5,31.3 26.4,31.3 C26.6,31.2 26.7,31.2 26.9,31.2 C27.1,31.2 27.2,31.1 27.4,31 C27.4,31 27.5,31 27.5,30.9 C27.5,30.9 27.6,30.8 27.7,30.8 C27.8,30.8 27.8,30.7 27.8,30.7 C27.8,30.7 27.9,30.7 27.9,30.7 C27.9,30.7 28,30.7 28,30.6 C28.1,30.6 28.1,30.5 28.1,30.5 C28.1,30.5 28.1,30.5 28.1,30.5 C28.1,30.5 28.1,30.5 28.1,30.5 L28.1,30.5 C28.1,30.5 28.1,30.5 28.2,30.5 C28.2,30.5 28.3,30.6 28.3,30.6 C28.3,30.6 28.4,30.7 28.4,30.7 C28.4,30.7 28.5,30.7 28.5,30.8 C28.6,30.9 28.8,31 28.9,31.1 C29.1,31.2 29.2,31.2 29.4,31.2 L31.3,31.2 C31.2,31.2 31.1,31.1 31,31.1 C30.9,31.1 30.8,31.1 30.7,31 C30.3,30.8 29.9,30.6 29.5,30.4 C29.1,30.2 28.8,29.9 28.5,29.5 L28.6,29.4 L29.7,28.5 L29.8,28.5 C29.9,28.8 30,29.1 30.2,29.4 C30.4,29.7 30.6,29.9 30.9,30.1 C31.2,30.3 31.4,30.5 31.7,30.7 C31.8,30.8 31.9,30.8 32.1,30.9 L33.7,29.3 L32.7,27.1 L34.9,28.1 L36.7,26.3 L38.6,28.2 L40.8,27.3 L39.9,29.5 L41.4,31 C41.4,31 41.4,31 41.4,31 C41.7,30.9 42,30.7 42.2,30.6 C42.5,30.4 42.7,30.2 42.9,30 C43.1,29.8 43.3,29.6 43.5,29.3 C43.7,29 43.8,28.8 43.9,28.5 L45.1,29.5 L45.2,29.6 C44.9,30 44.6,30.3 44.2,30.5 C43.8,30.7 43.4,30.9 43,31.1 C42.9,31.1 42.8,31.1 42.7,31.2 C42.6,31.2 42.5,31.3 42.4,31.3 L44.2,31.3 C44.3,31.3 44.4,31.3 44.6,31.2 C44.7,31.2 44.9,31.1 45,31 C45.1,30.9 45.2,30.9 45.4,30.8 C45.5,30.7 45.6,30.6 45.7,30.6 L45.7,30.6 C45.7,30.6 45.8,30.6 45.9,30.7 C46,30.8 46,30.8 46.1,30.8 C46.3,30.9 46.5,31 46.6,31.1 C46.8,31.2 47,31.2 47.2,31.3 C47.3,31.3 47.3,31.3 47.4,31.3 C47.5,31.3 47.5,31.3 47.6,31.3 C47.5,31.1 47.3,31.1 47.2,31.2 Z" id="Shape"></path>
        </g>
    </g>
</svg>