<?xml version="1.0" encoding="UTF-8" standalone="no"?>
<svg width="73px" height="62px" viewBox="0 0 73 62" version="1.1" xmlns="http://www.w3.org/2000/svg" xmlns:xlink="http://www.w3.org/1999/xlink">
    <!-- Generator: Sketch 45.1 (43504) - http://www.bohemiancoding.com/sketch -->
    <title>xaurum-icon</title>
    <desc>Created with Sketch.</desc>
    <defs></defs>
    <g id="Page-1" stroke="none" stroke-width="1" fill="none" fill-rule="evenodd">
        <g id="xaurum-icon" fill-rule="nonzero" fill="#876C3C">
            <path d="M54.4,27.3 L54.4,23.4 L61.6,23.4 L61.6,19.1 L66.7,19.1 L66.7,2.9 L72.1,2.9 L72.1,0.8 L50.3,0.8 L50.3,2.9 L59.6,2.9 L59.6,16 L54.5,16 L54.5,19.9 L47.3,19.9 L47.3,21.9 L39.9,21.9 C40,21.8 40,21.7 40.1,21.5 C40.7,20.3 41.6,19.8 42.2,19.7 C41.9,19.9 41.8,20.2 41.8,20.5 C41.8,21.1 42.3,21.6 43,21.6 C43.4,21.6 43.8,21.4 44,21.1 C44,21.1 44,21.1 44,21.1 C44.3,20.7 44.4,20.3 44.2,19.9 C43.9,19.3 43.1,18.9 42.3,18.9 C41.5,18.9 40.2,19.5 39.3,21.2 C39.2,21.5 39,21.7 38.9,22 L36.1,14.8 L33.3,21.9 C33.2,21.7 33.1,21.5 33,21.3 C32.1,19.6 30.8,19 30,19 C29.2,19 28.4,19.4 28.1,20 C27.9,20.4 28,20.8 28.3,21.2 C28.3,21.2 28.3,21.2 28.3,21.2 C28.5,21.5 28.9,21.7 29.3,21.7 C30,21.7 30.5,21.2 30.5,20.6 C30.5,20.3 30.3,20 30.1,19.8 C30.7,19.9 31.6,20.4 32.2,21.6 C32.3,21.7 32.3,21.8 32.4,22 L24.9,22 L24.9,20 L17.7,20 L17.7,16.1 L12.6,16.1 L12.6,2.9 L21.9,2.9 L21.9,0.8 L0,0.8 L0,2.9 L5.4,2.9 L5.4,19.2 L10.5,19.2 L10.5,23.5 L17.7,23.5 L17.7,27.4 L24.6,27.4 L24.6,29.2 L19.4,31.2 L24.6,33.2 L24.6,34.7 L17.7,34.7 L17.7,38.6 L10.5,38.6 L10.5,42.9 L5.4,42.9 L5.4,59.2 L0,59.2 L0,61.3 L21.9,61.3 L21.9,59.2 L12.6,59.2 L12.6,45.9 L17.7,45.9 L17.7,42 L24.9,42 L24.9,40.1 L32.4,40.1 C32.3,40.2 32.3,40.4 32.2,40.5 C31.6,41.7 30.7,42.2 30.1,42.3 C30.4,42.1 30.5,41.8 30.5,41.5 C30.5,40.9 30,40.4 29.3,40.4 C28.9,40.4 28.5,40.6 28.3,40.9 C28.3,40.9 28.3,40.9 28.3,40.9 C28,41.3 27.9,41.7 28.1,42.1 C28.4,42.7 29.2,43.1 30,43.1 C30.8,43.1 32.1,42.5 33,40.8 C33.1,40.7 33.1,40.5 33.2,40.4 L36.1,47.8 L39,40.3 C39.1,40.5 39.2,40.7 39.3,40.8 C40.2,42.5 41.5,43.1 42.3,43.1 C43.1,43.1 43.9,42.7 44.2,42.1 C44.4,41.7 44.3,41.3 44,40.9 C44,40.9 44,40.9 44,40.9 C43.8,40.6 43.4,40.4 43,40.4 C42.3,40.4 41.8,40.9 41.8,41.5 C41.8,41.8 42,42.1 42.2,42.3 C41.6,42.2 40.7,41.7 40.1,40.5 C40,40.4 40,40.2 39.9,40.1 L47.3,40.1 L47.3,42 L54.5,42 L54.5,45.9 L59.6,45.9 L59.6,59 L50.3,59 L50.3,61.1 L72.2,61.1 L72.2,59 L66.8,59 L66.8,42.8 L61.7,42.8 L61.7,38.5 L54.5,38.5 L54.5,34.6 L47.5,34.6 L47.5,33.1 L52.8,31 L47.5,28.9 L47.5,27.2 L54.4,27.2 L54.4,27.3 Z M46.2,31.2 C46,31.2 45.9,31.3 45.7,31.4 C45.7,31.4 45.6,31.4 45.6,31.5 C45.6,31.5 45.5,31.6 45.4,31.6 C45.3,31.6 45.3,31.7 45.3,31.7 C45.3,31.7 45.2,31.7 45.2,31.7 C45.2,31.7 45.1,31.7 45.1,31.8 C45,31.8 45,31.9 45,31.9 C45,31.9 45,31.9 45,31.9 C45,31.9 45,31.9 45,31.9 L45,31.9 C45,31.9 45,31.9 44.9,31.9 C44.9,31.9 44.8,31.8 44.8,31.8 C44.8,31.8 44.7,31.7 44.7,31.7 C44.7,31.7 44.6,31.7 44.6,31.6 C44.5,31.5 44.3,31.4 44.2,31.3 C44,31.2 43.9,31.2 43.7,31.2 L41.8,31.2 C41.9,31.2 42,31.3 42.1,31.3 C42.2,31.3 42.3,31.3 42.4,31.4 C42.8,31.6 43.2,31.8 43.6,32 C44,32.2 44.3,32.5 44.6,32.9 L44.5,33 L43.4,33.9 L43.3,33.9 C43.2,33.6 43.1,33.3 42.9,33 C42.7,32.7 42.5,32.5 42.2,32.3 C41.9,32.1 41.7,31.9 41.4,31.7 C41.3,31.6 41.1,31.5 41,31.5 L39.1,33 L40.1,35.2 L37.9,34.2 L36,36.1 L34.1,34.2 L31.9,35.2 L32.9,33 L31.5,31.6 C31.3,31.7 31,31.8 30.8,32 C30.5,32.2 30.3,32.4 30.1,32.6 C29.9,32.8 29.7,33 29.5,33.3 C29.3,33.6 29.2,33.8 29.1,34.1 L27.9,33.1 L27.8,33 C28.1,32.6 28.4,32.3 28.8,32.1 C29.2,31.9 29.6,31.7 30,31.5 C30.1,31.5 30.2,31.5 30.3,31.4 C30.4,31.4 30.5,31.3 30.6,31.3 L28.8,31.3 C28.7,31.3 28.6,31.3 28.4,31.4 C28.3,31.4 28.1,31.5 28,31.6 C27.9,31.7 27.8,31.7 27.6,31.8 C27.5,31.9 27.4,32 27.3,32 L27.3,32 C27.3,32 27.2,32 27.1,31.9 C27,31.8 27,31.8 26.9,31.8 C26.7,31.7 26.5,31.6 26.4,31.5 C26.2,31.4 26,31.4 25.8,31.3 C25.7,31.3 25.7,31.3 25.6,31.3 C25.5,31.3 25.5,31.3 25.4,31.3 C25.6,31.2 25.7,31.2 25.9,31.2 C26.1,31.2 26.2,31.1 26.4,31 C26.4,31 26.5,31 26.5,30.9 C26.5,30.9 26.6,30.8 26.7,30.8 C26.8,30.8 26.8,30.7 26.8,30.7 C26.8,30.7 26.9,30.7 26.9,30.7 C26.9,30.7 27,30.7 27,30.6 C27.1,30.6 27.1,30.5 27.1,30.5 C27.1,30.5 27.1,30.5 27.1,30.5 C27.1,30.5 27.1,30.5 27.1,30.5 L27.1,30.5 C27.1,30.5 27.1,30.5 27.2,30.5 C27.2,30.5 27.3,30.6 27.3,30.6 C27.3,30.6 27.4,30.7 27.4,30.7 C27.4,30.7 27.5,30.7 27.5,30.8 C27.6,30.9 27.8,31 27.9,31.1 C28.1,31.2 28.2,31.2 28.4,31.2 L30.3,31.2 C30.2,31.2 30.1,31.1 30,31.1 C29.9,31.1 29.8,31.1 29.7,31 C29.3,30.8 28.9,30.6 28.5,30.4 C28.1,30.2 27.8,29.9 27.5,29.5 L27.6,29.4 L28.7,28.5 L28.8,28.5 C28.9,28.8 29,29.1 29.2,29.4 C29.4,29.7 29.6,29.9 29.9,30.1 C30.2,30.3 30.4,30.5 30.7,30.7 C30.8,30.8 30.9,30.8 31.1,30.9 L32.7,29.3 L31.7,27.1 L33.9,28.1 L35.7,26.3 L37.6,28.2 L39.8,27.3 L38.9,29.5 L40.4,31 C40.4,31 40.4,31 40.4,31 C40.7,30.9 41,30.7 41.2,30.6 C41.5,30.4 41.7,30.2 41.9,30 C42.1,29.8 42.3,29.6 42.5,29.3 C42.7,29 42.8,28.8 42.9,28.5 L44.1,29.5 L44.2,29.6 C43.9,30 43.6,30.3 43.2,30.5 C42.8,30.7 42.4,30.9 42,31.1 C41.9,31.1 41.8,31.1 41.7,31.2 C41.6,31.2 41.5,31.3 41.4,31.3 L43.2,31.3 C43.3,31.3 43.4,31.3 43.6,31.2 C43.7,31.2 43.9,31.1 44,31 C44.1,30.9 44.2,30.9 44.4,30.8 C44.5,30.7 44.6,30.6 44.7,30.6 L44.7,30.6 C44.7,30.6 44.8,30.6 44.9,30.7 C45,30.8 45,30.8 45.1,30.8 C45.3,30.9 45.5,31 45.6,31.1 C45.8,31.2 46,31.2 46.2,31.3 C46.3,31.3 46.3,31.3 46.4,31.3 C46.5,31.3 46.5,31.3 46.6,31.3 C46.5,31.1 46.3,31.1 46.2,31.2 Z" id="Shape"></path>
        </g>
    </g>
</svg>